# xmcd
#
# Track frame offsets: 
#        150
#        17899
#        37271
#        56997
#        68856
#        84799
#        105779
#        130660
#        149997
#        164033
#        176724
#        194812
#        207379
#        225263
#        248440
#
# Disc length: 3582 seconds
#
# Revision: 0
# Processed by: cddbd v1.5.2PL0 Copyright (c) Steve Scherf et al.
# Submitted via: ExactAudioCopyFreeDBPlugin 1.0
#
DISCID=da0dfc0f
DTITLE=Chris Paulson - Sea of Love
DYEAR=2012
DGENRE=Blues
TTITLE0=Blue Horizon
TTITLE1=Wandering Minstrel Song
TTITLE2=Sea Of Love
TTITLE3=The Older I Get The Better I Was
TTITLE4=Loves' Madness
TTITLE5=Southbound
TTITLE6=Sharks Tooth
TTITLE7=Love Sweet Love
TTITLE8=LOL
TTITLE9=Dead Man Walking
TTITLE10=Blue Rain
TTITLE11=Winter Waves
TTITLE12=Night Rain (Live)
TTITLE13=Streets Of Frankfurt (Live)
TTITLE14=Singin' To Jesus
EXTD=
EXTT0=
EXTT1=
EXTT2=
EXTT3=
EXTT4=
EXTT5=
EXTT6=
EXTT7=
EXTT8=
EXTT9=
EXTT10=
EXTT11=
EXTT12=
EXTT13=
EXTT14=
PLAYORDER=
